<svg width="206" height="227" viewBox="0 0 206 227" fill="none" xmlns="http://www.w3.org/2000/svg">
<g clip-path="url(#clip0_221_46)">
<path d="M196.37 68.8C190.34 55.02 182.21 43.07 171.98 32.95C161.75 22.83 149.8 14.81 136.13 8.89C122.46 2.96 107.88 0 92.37 0H0V226.09H25.82L71.34 164.87L43.36 133.9L85.91 84.22L61.39 63.84L131.51 45.2L133.32 114.14L111.04 96.38L83.57 129.47L110.27 158.94L68.71 226.1H92.37C108.08 226.1 122.84 223.14 136.62 217.22C150.4 211.3 162.35 203.17 172.47 192.83C182.59 182.49 190.61 170.49 196.53 156.82C202.45 143.15 205.41 128.56 205.41 113.06C205.41 97.33 202.4 82.58 196.37 68.8Z" fill="#00896F"/>
</g>
<defs>
<clipPath id="clip0_221_46">
<rect width="205.41" height="226.09" fill="white"/>
</clipPath>
</defs>
</svg>
